<?xml version="1.0" encoding="UTF-8" standalone="no"?>
<svg
   xmlns:dc="http://purl.org/dc/elements/1.1/"
   xmlns:cc="http://creativecommons.org/ns#"
   xmlns:rdf="http://www.w3.org/1999/02/22-rdf-syntax-ns#"
   xmlns:svg="http://www.w3.org/2000/svg"
   xmlns="http://www.w3.org/2000/svg"
   xmlns:sodipodi="http://sodipodi.sourceforge.net/DTD/sodipodi-0.dtd"
   xmlns:inkscape="http://www.inkscape.org/namespaces/inkscape"
   viewBox="0 0 241 241"
   height="241"
   width="241"
   version="1.1"
   id="svg3317"
   inkscape:version="0.48.2 r9819"
   sodipodi:docname="sound.svg">
  <metadata
     id="metadata3647">
    <rdf:RDF>
      <cc:Work
         rdf:about="">
        <dc:format>image/svg+xml</dc:format>
        <dc:type
           rdf:resource="http://purl.org/dc/dcmitype/StillImage" />
      </cc:Work>
    </rdf:RDF>
  </metadata>
  <defs
     id="defs3645" />
  <sodipodi:namedview
     pagecolor="#ffffff"
     bordercolor="#666666"
     borderopacity="1"
     objecttolerance="10"
     gridtolerance="10"
     guidetolerance="10"
     inkscape:pageopacity="0"
     inkscape:pageshadow="2"
     inkscape:window-width="1774"
     inkscape:window-height="998"
     id="namedview3643"
     showgrid="false"
     inkscape:zoom="0.11642857"
     inkscape:cx="2989.1616"
     inkscape:cy="98.503506"
     inkscape:window-x="1815"
     inkscape:window-y="93"
     inkscape:window-maximized="0"
     inkscape:current-layer="svg3317"
     fit-margin-right="-60"
     fit-margin-top="-55"
     fit-margin-left="-50"
     fit-margin-bottom="-55" />
  <path
     style="fill:#333333;fill-opacity:0;stroke:#333333;stroke-width:1"
     d="m 10.48,76.77 c 0,0 0,78.96 0,78.96 0,0 44.95,0 44.95,0 0,0 67.29,55.26 67.29,55.26 0,0 0.04,-189.48 0.04,-189.48 0,0 -67.3,55.26 -67.3,55.26 0,0 -44.98,0 -44.98,0 0,0 0,0 0,0 m 138.08,-9.08 c -3.93,-3.89 -10.24,-3.89 -14.15,0.02 -3.9,3.91 -3.9,10.24 0.02,14.16 0,0 0,-0.02 0,-0.02 8.63,8.64 13.95,20.49 13.95,33.66 0,13.16 -5.31,24.97 -13.93,33.61 -3.94,3.89 -3.94,10.22 -0.02,14.15 1.95,1.95 4.51,2.93 7.07,2.93 2.57,0 5.13,-0.98 7.08,-2.93 12.22,-12.2 19.8,-29.15 19.79,-47.76 0.01,-18.65 -7.6,-35.62 -19.81,-47.82 0,0 0,0 0,0 m 22.95,-22.94 c -3.93,-3.91 -10.24,-3.91 -14.13,0 -3.92,3.91 -3.92,10.25 0,14.14 14.5,14.51 23.44,34.47 23.44,56.61 0,22.12 -8.94,42.07 -23.42,56.59 -3.92,3.9 -3.92,10.23 0,14.14 1.95,1.95 4.51,2.93 7.08,2.93 2.56,0 5.12,-0.98 7.07,-2.93 18.08,-18.09 29.29,-43.15 29.27,-70.73 0.01,-27.6 -11.2,-52.68 -29.31,-70.75 0,0 0,0 0,0 M 193.3,22.96 c -3.93,-3.91 -10.25,-3.89 -14.14,0.02 -3.91,3.89 -3.91,10.23 0.02,14.13 0,0 -0.02,0 -0.02,0 20.09,20.09 32.48,47.73 32.48,78.39 0,30.63 -12.39,58.28 -32.46,78.38 -3.91,3.9 -3.91,10.23 0.02,14.15 1.94,1.94 4.5,2.91 7.06,2.91 2.56,0 5.13,-0.98 7.08,-2.93 23.63,-23.66 38.31,-56.43 38.29,-92.51 0.02,-36.11 -14.66,-68.89 -38.33,-92.54 0,0 0,0 0,0"
     id="path3319"
     inkscape:connector-curvature="0" />
  <path
     style="opacity:0.5;fill:#333333;stroke:#333333;stroke-width:1"
     d="m 10.48,76.77 0,0 m 0,78.96 0,0"
     id="path3325"
     inkscape:connector-curvature="0" />
  <path
     style="opacity:0.5;fill:#333333;stroke:#333333;stroke-width:1"
     d="m 122.72,210.99 0,0 m 0.04,-189.48 0,0"
     id="path3343"
     inkscape:connector-curvature="0" />
  <rect
     style="opacity:0;fill:#000000;stroke:#000000"
     x="-49.5"
     y="-54.5"
     width="350"
     height="350"
     r="0"
     rx="0"
     ry="0"
     id="rect3641" />
  <path
     style="fill:#ff6600"
     d="m 137.63623,164.3115 c -4.08981,-2.10737 -6.13303,-6.51797 -4.91019,-10.59943 0.33138,-1.10605 2.14975,-3.76619 4.0521,-5.92792 4.34704,-4.93975 7.90028,-11.17603 10.10139,-17.72894 1.6547,-4.92619 1.71357,-5.41016 1.73029,-14.22546 0.0199,-10.49717 -0.50702,-13.10572 -4.22903,-20.93558 -2.15572,-4.53489 -4.31074,-7.7068 -9.40531,-13.84336 -3.41756,-4.11654 -3.5653,-8.4237 -0.41214,-12.01495 2.99877,-3.41541 7.20246,-4.32314 11.01443,-2.37842 2.94744,1.50367 8.93136,8.63753 12.907,15.38735 14.33246,24.33361 11.24652,55.96639 -7.54701,77.36139 -5.2639,5.99256 -8.71883,7.26666 -13.30153,4.90532 z"
     id="path3659"
     inkscape:connector-curvature="0" />
  <path
     style="fill:#ff6600"
     d="m 161.60325,187.80198 c -3.85418,-1.40691 -6.25662,-4.70015 -6.25662,-8.57648 0,-2.97485 0.84025,-4.46966 5.40964,-9.62377 17.39947,-19.62598 24.24654,-45.21353 19.00026,-71.00411 -2.66403,-13.09632 -9.6619,-26.7041 -19.29611,-37.52247 -3.93333,-4.41678 -5.11379,-6.50915 -5.11379,-9.06416 0,-2.59101 0.84909,-4.59184 2.81247,-6.62741 2.1501,-2.229156 4.63162,-3.041452 7.8274,-2.562214 2.21546,0.332228 2.97751,0.853991 6.54848,4.483594 23.17303,23.55356 32.70036,59.63696 24.40036,92.41283 -4.05778,16.02375 -11.35719,29.54311 -22.98529,42.57145 -5.11673,5.73288 -8.09766,7.06384 -12.3468,5.51274 l 0,0 z"
     id="path3661"
     inkscape:connector-curvature="0" />
  <path
     style="fill:#d45500"
     d="m 182.7242,209.4368 c -3.28818,-1.31118 -5.49225,-4.73647 -5.49225,-8.53536 0,-3.25288 0.52491,-4.18035 5.46146,-9.64991 19.72594,-21.85577 29.55506,-47.19038 29.55506,-76.17834 0,-27.74711 -9.92351,-53.33841 -28.95283,-74.665215 -5.41219,-6.065624 -5.43896,-6.103457 -5.972,-8.439536 -1.24617,-5.461426 3.24054,-10.975085 8.93092,-10.975085 3.3245,0 5.7004,1.592908 10.83874,7.266743 26.89516,29.698073 38.6629,70.142983 31.80969,109.327713 -4.33022,24.75902 -15.96901,48.24266 -32.82082,66.22274 -2.46159,2.6264 -5.25863,5.10243 -6.21564,5.5023 -2.01085,0.84019 -5.20703,0.89566 -7.14233,0.12395 l 0,0 z"
     id="path3663"
     inkscape:connector-curvature="0" />
  <path
     style="fill:#ffb380"
     d="m 137.61356,163.91793 c -3.42006,-2.08545 -5.59274,-6.30815 -4.82322,-9.37415 0.18191,-0.72481 2.28486,-3.92162 4.67321,-7.10404 4.77456,-6.36197 7.80305,-11.93802 9.93791,-18.29767 1.35951,-4.04989 1.38981,-4.43843 1.14215,-14.64121 -0.17899,-7.37328 -0.49632,-11.19717 -1.07024,-12.89657 -1.81314,-5.36873 -4.73866,-10.75638 -8.7447,-16.10429 -4.89224,-6.53094 -6.14278,-8.75215 -6.14278,-10.91081 0,-3.89746 4.69679,-8.41434 8.74948,-8.41434 3.00956,0 5.36812,1.3166 8.50284,4.74649 16.05439,17.56606 21.35939,42.63962 13.83764,65.40227 -3.87281,11.72003 -12.69197,24.64595 -19.11065,28.00976 -1.77522,0.93033 -5.06727,0.73359 -6.95164,-0.41544 l 0,0 z"
     id="path3665"
     inkscape:connector-curvature="0" />
  <path
     style="fill:#ff7f2a"
     d="m 161.30521,187.26982 c -3.22232,-1.43831 -5.6365,-5.04748 -5.6365,-8.42652 0,-2.25277 0.97498,-3.90295 5.37076,-9.09017 15.08057,-17.79576 21.68875,-37.14166 20.34449,-59.55988 -0.46257,-7.71411 -1.50344,-13.27436 -3.76839,-20.13037 -3.25209,-9.84409 -9.33324,-20.35702 -16.85292,-29.13486 -5.45066,-6.36264 -6.22399,-9.10327 -3.75666,-13.31343 1.69833,-2.897984 4.28738,-4.522565 7.2075,-4.522565 3.03702,0 4.53039,0.894284 8.67375,5.194155 20.9269,21.7174 30.62713,54.12445 25.20839,84.2176 -3.30347,18.34592 -11.35741,34.91551 -23.63885,48.63285 -5.59434,6.24841 -9.16396,7.91309 -13.15157,6.13319 z"
     id="path3667"
     inkscape:connector-curvature="0" />
  <path
     style="fill:#ff7f2a"
     d="m 181.73509,208.45491 c -2.38847,-1.57446 -4.0512,-4.69714 -4.05443,-7.61434 -0.003,-2.89488 0.91195,-4.35762 8.09567,-12.93991 14.4199,-17.22726 22.93797,-36.34769 25.76989,-57.84545 0.86487,-6.56544 0.87456,-23.03725 0.0172,-29.25613 -3.07928,-22.3358 -11.3808,-40.55397 -27.05667,-59.377507 -6.5161,-7.82452 -6.88726,-8.42282 -6.92508,-11.163282 -0.0891,-6.452289 6.76453,-10.767409 12.44323,-7.834456 5.27931,2.726678 17.24657,17.906613 24.54636,31.135985 14.94402,27.08294 19.56332,59.81932 12.72552,90.18405 -4.88067,21.67362 -16.6057,43.99584 -31.12161,59.24957 -2.60083,2.73304 -5.39905,5.31576 -6.21826,5.73939 -2.15969,1.11681 -6.3193,0.97621 -8.22182,-0.27792 l 0,0 z"
     id="path3669"
     inkscape:connector-curvature="0" />
  <path
     style="fill:#ff7f2a"
     d="m 159.8059,185.83512 c -2.91091,-2.39941 -3.85554,-4.55488 -3.6598,-8.35097 0.0327,-0.63378 1.38803,-2.8719 3.01188,-4.97359 1.62385,-2.10169 2.95245,-3.91284 2.95245,-4.02478 0,-0.11194 0.70647,-0.95981 1.56994,-1.88416 3.18122,-3.4055 12.72144,-19.36849 11.57552,-19.36849 -0.15773,0 0.10892,-0.60391 0.59255,-1.34203 0.48363,-0.73811 0.70119,-1.34202 0.48346,-1.34202 -0.21773,0 -0.11836,-0.33439 0.22083,-0.74308 0.72777,-0.87692 3.06396,-8.78458 3.51372,-11.89344 0.17256,-1.1928 0.44293,-2.76297 0.60081,-3.48926 0.45943,-2.11337 1.29522,-11.90689 1.05002,-12.30364 -0.12283,-0.19873 -0.26767,-2.55312 -0.32187,-5.23197 -0.0874,-4.32144 -0.90899,-10.79605 -1.75692,-13.84628 -0.16415,-0.59049 -0.4082,-1.55675 -0.54234,-2.14724 -0.7518,-3.30957 -1.08159,-4.36065 -1.55798,-4.96549 -0.29069,-0.36906 -0.39509,-0.67101 -0.232,-0.67101 0.75866,0 -5.75204,-14.0544 -6.67284,-14.4044 -0.25891,-0.0984 -0.47075,-0.3979 -0.47075,-0.66552 0,-0.73276 -4.48422,-7.53131 -6.10009,-9.24838 -0.77839,-0.82714 -1.41525,-1.71547 -1.41525,-1.97408 0,-0.2586 -0.63649,-0.97085 -1.41442,-1.58277 -0.77793,-0.61192 -1.24076,-1.11258 -1.02851,-1.11258 0.21225,0 -0.32413,-0.90587 -1.19196,-2.01304 -2.33298,-2.97641 -2.93435,-4.35916 -2.90241,-6.67356 0.0707,-5.12122 5.30698,-9.189143 10.11836,-7.860657 5.42254,1.497237 18.15292,17.683027 23.90026,30.387517 0.89723,1.98333 1.7844,3.72684 1.97148,3.87446 0.18708,0.14763 0.34602,0.50997 0.35321,0.80522 0.023,0.94662 3.19483,10.19338 3.55341,10.35932 0.19009,0.088 0.22231,0.63149 0.0716,1.20783 -0.15703,0.60047 -0.005,1.04788 0.35707,1.04788 0.3471,0 0.51109,0.19417 0.36441,0.4315 -0.14667,0.23733 -0.0264,1.50109 0.26736,2.80836 1.99405,8.87484 2.71396,23.9693 1.55597,32.62427 -0.28875,2.15817 -0.49146,4.09068 -0.45047,4.29448 0.041,0.20379 -0.0635,0.73288 -0.23228,1.17574 -0.16875,0.44287 -0.83913,3.10008 -1.48974,5.90491 -3.53719,15.2491 -11.8908,31.0919 -22.38869,42.4606 -6.06507,6.56817 -10.31542,7.97851 -14.25599,4.73035 z"
     id="path3671"
     inkscape:connector-curvature="0" />
  <path
     style="fill:#ff9955"
     d="m 159.8059,185.83512 c -2.91326,-2.40135 -3.85456,-4.55173 -3.6598,-8.36067 0.0533,-1.04215 3.46223,-5.99312 7.44719,-10.81591 3.84612,-4.65475 10.30023,-15.55451 11.97924,-20.23063 0.21202,-0.59049 0.74986,-1.91909 1.19521,-2.95245 1.11646,-2.59058 2.38327,-7.02155 3.04425,-10.64793 0.30482,-1.6724 0.69286,-3.64463 0.86231,-4.38274 0.16945,-0.73812 0.4296,-5.44862 0.57811,-10.4678 0.2472,-8.35416 -0.34343,-15.9117 -1.63612,-20.93558 -0.15194,-0.59049 -0.40607,-1.67569 -0.56474,-2.41155 -2.00193,-9.28453 -10.48664,-25.0515 -17.70889,-32.9081 -0.75871,-0.82534 -1.37947,-1.61252 -1.37947,-1.74927 0,-0.13676 -0.72252,-1.24606 -1.60559,-2.46511 -3.13968,-4.33421 -3.0901,-7.94384 0.15639,-11.38613 2.14151,-2.27066 4.98435,-3.152344 7.72461,-2.395722 5.33483,1.473022 17.54415,16.858222 23.61389,29.756332 1.09597,2.32892 2.24733,4.41187 2.55859,4.62878 0.31125,0.21692 0.40006,0.39809 0.19735,0.40261 -0.31161,0.007 2.0504,7.69094 3.13775,10.20761 0.19135,0.44287 0.39485,1.04678 0.45223,1.34202 0.0574,0.29525 0.16098,0.6576 0.23023,0.80522 0.0692,0.14762 0.23283,0.9931 0.36352,1.87883 0.13069,0.88574 0.47495,2.81825 0.76502,4.29448 1.63485,8.31996 2.16663,22.39431 1.13583,30.06135 -0.27786,2.06672 -0.5101,4.12002 -0.51609,4.56288 -0.0191,1.41454 -3.18355,13.00787 -4.68874,17.17792 -4.18279,11.58818 -11.36135,23.52813 -19.34035,32.16838 -6.1547,6.66477 -10.38276,8.08666 -14.34193,4.82318 l 0,0 z"
     id="path3673"
     inkscape:connector-curvature="0" />
  <path
     style="fill:#ffb380"
     d="m 137.62576,163.38854 c -2.35421,-1.43555 -4.06618,-4.06212 -4.36278,-6.69352 -0.23406,-2.07659 0.0194,-2.64124 3.2918,-7.3321 5.17379,-7.41655 8.17142,-12.57396 10.13011,-17.42887 1.69329,-4.19706 1.73647,-4.51164 1.90333,-13.86771 0.2993,-16.7819 -0.68916,-19.74364 -12.19385,-36.53668 -3.73367,-5.44993 -4.12837,-7.48308 -2.05107,-10.56557 2.07964,-3.08598 4.51166,-4.38344 7.73224,-4.12509 3.38357,0.27142 5.45468,1.72524 9.6394,6.76636 5.72853,6.90087 10.52387,16.29533 12.81087,25.09753 4.47277,17.21475 2.00878,34.88387 -6.98771,50.10848 -3.69903,6.25981 -7.81868,11.38655 -11.06708,13.77253 -2.94253,2.16132 -6.14295,2.45246 -8.84526,0.80464 l 0,0 z"
     id="path3675"
     inkscape:connector-curvature="0" />
  <path
     style="fill:#552200"
     d="M 98.498472,189.56394 C 86.098162,179.40246 71.501772,167.412 66.06206,162.91849 l -9.89041,-8.17002 -22.183983,0 -22.18399,0 0,-38.65031 0,-38.65031 22.41181,-0.0219 22.411813,-0.0219 32.476992,-26.72908 32.476998,-26.729089 0.12852,80.834559 c 0.0707,44.45901 -0.0501,85.88004 -0.26841,92.04673 l -0.39692,11.21216 -22.546008,-18.47542 0,0 z"
     id="path3677"
     inkscape:connector-curvature="0" />
</svg>
